<?xml version="1.0" encoding="utf-8"?>
<!-- Generator: Adobe Illustrator 19.0.0, SVG Export Plug-In . SVG Version: 6.00 Build 0)  -->
<svg version="1.1" id="Layer_1" xmlns="http://www.w3.org/2000/svg" xmlns:xlink="http://www.w3.org/1999/xlink" x="0px" y="0px"
	 viewBox="0 0 500 500" style="enable-background:new 0 0 500 500;" xml:space="preserve">
<style type="text/css">
	.st0{fill:#FFE81F;}
</style>
<g id="XMLID_1_">
	<rect id="XMLID_3_" x="67.5" y="139.8" width="365" height="220.4"/>
	<path id="XMLID_6_" class="st0" d="M148.2,257l4.5,13.3c2.4,7.2,4.6,12.9,4.9,12.9l0,0c0.3-0.3,9.2-26,9.2-26h17.1l-20.7,60.2
		h-11.9c0,0-12.7-36.7-12.7-36.9L125.4,317h-11.8l-20.4-60l17.1,0c0,0,9.3,26.5,9.5,26.5l0,0L129,257L148.2,257 M87.3,252.8l1.9,5.5
		l20.4,60l1,2.8h3h11.8h2.9l1-2.7l9.2-25.3c0.8,2.3,1.7,4.8,2.5,7.3c3.2,9.2,6.4,18.4,6.4,18.4l1,2.8h3h11.9h3l1-2.8l20.7-60.2
		l1.9-5.5h-5.8h-17.1h-3l-1,2.8c-1.5,4.5-3.6,10.4-5.4,15.5c-0.3-0.8-0.5-1.6-0.8-2.4l-4.5-13.3l-1-2.8h-3H129h-3l-1,2.8l-5.4,15.5
		c-1.8-5.1-3.9-11-5.5-15.5l-1-2.8l-2.9,0l-17.1,0L87.3,252.8z"/>
	<path id="XMLID_11_" class="st0" d="M412.1,256.8l0,15.8c0,0-17-0.1-25.7-0.1c-2.9,0-4.8,0-4.9,0c-1.5,0.3-2.4,3.4-2,4.8
		c0.2,0.7,1.8,3,3.5,5.1c1.7,2.1,4.5,5.6,6.1,7.7c4.3,5.4,4.9,6.5,5.3,9.6c0.7,5-1.7,10.5-6.2,14.1c-4.4,3.6-4.2,3.6-37.2,3.6
		c-0.5,0-1,0-1.4,0c-20,0-30.6-0.2-32.2-0.5c-2.7-0.6-7.1-4.2-18.6-15.3c-4.2-4-8-7.5-8.2-7.5l0,0l-0.1,23.2l-18.7-0.1l-0.1-59.9
		h23.6h18.1c12.6,0.5,21.1,13,19.4,21c-0.4,1.8-1.4,4.4-2.2,5.8c-1.7,2.9-5.9,6.5-9.4,8.1c-1.3,0.6-2.3,1.2-2.3,1.5
		c0,0.9,4.2,5,5.8,5.7c1.3,0.6,5.3,0.7,22.5,0.7c2,0,3.9,0,5.5,0c17.3,0,16.5-0.1,17.8-3c0.9-2,0.2-3.2-6.4-10.6
		c-8.4-8.3-7.5-12.3-7.5-15.3c-0.1-3.5,2.7-14.6,17.1-14.6L412.1,256.8 M300,284.4c8,0,9.6-0.1,11.3-0.9c5.8-2.5,6.1-9.9,0.5-13.2
		c-1.2-0.7-2.8-0.8-11.4-0.9l-10-0.1c0.1,0.1,0,14.4,0,14.4S292.9,284.4,300,284.4 M416.3,252.6h-4.2h-38.5c-8.4,0-13.3,3.3-16,6.1
		c-4.3,4.5-5.4,10.2-5.3,12.8c0,0.2,0,0.5,0,0.7c0,4.3,0.6,9.3,8.7,17.3c1.6,1.8,4.3,4.8,5.3,6.3c-2.2,0.3-7.8,0.3-13.7,0.3h-2.5
		l-3,0c-10.4,0-19.1,0-20.9-0.4c-0.3-0.2-0.6-0.4-1-0.8c3.6-2.2,7.2-5.6,8.9-8.6c1-1.8,2.2-4.8,2.7-7.1c1.1-5-0.7-11.1-4.7-16.2
		c-4.7-6-11.5-9.6-18.6-9.8l-0.1,0h-0.1h-18.1h-23.6h-4.2l0,4.2l0.1,59.9l0,4.1l4.1,0l18.7,0.1l4.2,0l0-4.2l0.1-13.9
		c0.4,0.4,0.8,0.7,1.2,1.1c12.6,12.1,16.9,15.5,20.6,16.3c1,0.2,2.7,0.6,33.1,0.6h1.4c16.4,0,24.7,0,29.6-0.5
		c5.6-0.5,7.4-1.8,10.1-4l0.1-0.1c5.6-4.5,8.5-11.4,7.7-17.9c-0.5-4.2-1.7-6-6.2-11.7l-1.4-1.7c-1.6-2-3.5-4.4-4.8-6
		c-1-1.3-1.8-2.4-2.3-3.2c0.6,0,1.5,0,2.6,0c8.5,0,25.5,0.1,25.6,0.1l4.2,0l0-4.2l0-15.8L416.3,252.6z M294.6,280.1
		c0-1.1,0-2.2,0-3.4c0-1,0-2.1,0-3l5.8,0c3.4,0,8.4,0,9.4,0.3c1.3,0.8,2,1.9,1.9,3.2c0,0.7-0.4,1.9-2,2.6c-0.9,0.4-2.4,0.5-9.7,0.5
		C297.7,280.3,295.9,280.2,294.6,280.1z"/>
	<path id="XMLID_16_" class="st0" d="M233.7,256.5l21,60.4l-17.1,0.1l-2.8-9.1l-30.6-0.2l-2.7,9.1l-16.9-0.2l20.7-60L233.7,256.5
		 M220,265.4c0,0.2-2.7,7.4-5.3,14.6c-2.7,7.3-5.3,14.6-5.4,14.6v0v0c0.1,0,9.5,0,15.6,0c2.8,0,4.9,0,5,0l0,0v0l0,0
		C229.7,294.4,220,265.7,220,265.4L220,265.4L220,265.4 M236.7,252.3l-3,0l-28.4,0l-3,0l-1,2.8l-20.7,60l-1.9,5.5l5.8,0.1l16.9,0.2
		l3.1,0l0.9-3l1.8-6.1l24.4,0.2l1.9,6.2l0.9,2.9l3.1,0l17.1-0.1l5.8,0l-1.9-5.5l-21-60.4L236.7,252.3z M215.3,290.5
		c0.8-2.2,1.9-5.1,3.3-9c0.5-1.2,0.9-2.4,1.2-3.4c0.3,1,0.7,2.1,1.1,3.3c0.3,1,1.8,5.4,3.1,9.1C220.2,290.5,217.4,290.5,215.3,290.5
		z"/>
	<path id="XMLID_19_" class="st0" d="M240.8,184.4v14.9h-29.8v45.6h-17.8v-45.6l-34.8,0.1c-4.2,0-4.8,3.3-4.8,4.6
		c0,1.6,1,3.1,6.7,10.3c3.7,4.6,7,9.3,7.5,10.3c2.4,5.6-0.7,14.2-6.4,17.8c-4.1,2.5-3.4,2.6-33.5,2.6c-1.5,0-3.2,0-4.9,0H90.4v-16.7
		h51l1.5-1c1-0.7,1.6-1.7,1.8-3c0.3-1.9,0.2-2.2-6.1-9.3c-7.4-8.4-8.2-9.9-7.8-15.3c0.4-6.1,5.9-15,15.4-15L240.8,184.4 M245,180.2
		l-4.2,0l-94.6,0.1c-5.4,0-10.5,2.4-14.2,6.6c-3,3.5-5,8-5.3,12.2c-0.5,7,1.1,9.6,8.9,18.3c2.3,2.5,4.4,5,5.1,6l0,0.1l0,0l-0.4,0.3
		H90.4h-4.2v4.2v16.7v4.2h4.2h32.4h2.6h2.3c14.9,0,22.2,0,26.5-0.3c4.9-0.4,6.5-1.2,8.9-2.7l0.3-0.2c7.4-4.6,11.3-15.5,8-23
		c-1-2.3-7.3-10.3-8-11.2c-2-2.5-5.2-6.6-5.8-7.8c0-0.1,0-0.2,0.1-0.3c0.1,0,0.3-0.1,0.5-0.1l30.7-0.1v41.4v4.2h4.2h17.8h4.2v-4.2
		v-41.4h25.7h4.2v-4.2v-14.9V180.2z"/>
	<path id="XMLID_24_" class="st0" d="M289.3,184.9l20.9,60.6l-17.1-0.1l-2.8-9.1l-30.5-0.1l-2.7,8.7h-17.4l20.7-60H289.3
		 M264.9,223.3l20.7,0l0,0c0.1,0-10.1-29.8-10.1-29.8C275.4,193.4,264.7,223.3,264.9,223.3 M292.3,180.7h-3h-28.8h-3l-1,2.8
		l-20.7,60l-1.9,5.5h5.8h17.4h3.1l0.9-2.9l1.8-5.8l24.3,0.1l1.9,6.1l0.9,2.9l3.1,0l17.1,0.1l5.9,0l-1.9-5.6l-20.9-60.6L292.3,180.7z
		 M270.7,219.1c1.3-3.7,3.1-8.7,4.7-13.2c1.5,4.5,3.2,9.5,4.5,13.2L270.7,219.1z"/>
	<path id="XMLID_29_" class="st0" d="M348.1,184.9c13.5,0,22.9,0.2,24.7,0.5c4.2,0.7,7.9,2.9,10.8,6.4c3,3.6,3.6,5.3,4,10.2
		c0.6,6.9-2.7,12.9-9.2,16.8c-1.9,1.1-3.8,2.2-4.3,2.4c-0.7,0.3-0.6,0.7,0.7,2.2c0.9,1,2.4,2.4,3.3,3.2l1.8,1.4l32.3,0.5l0.3,16.5
		h-19.8c-15.3,0-20.2-0.1-21.7-0.6c-2.2-0.7-7.3-5.1-17.9-15.1l-7.5-7.1l0.1,22.9h-19.3v-60H348.1 M345.2,211.9h10.3
		c10,0,10.3,0,11.7-1.1c2.5-1.9,3.4-3.9,3.2-6.9c-0.3-3.1-1.5-4.7-4.5-6c-1.7-0.7-3.3-0.9-11.3-0.9h-9.3V211.9 M348.1,180.7h-21.8
		h-4.2v4.2v60v4.2h4.2h19.3h4.2l0-4.2l0-13.1l0.4,0.4c13,12.4,16.9,15.2,19.4,16.1c1.9,0.7,5.2,0.8,23,0.8h19.8h4.2l-0.1-4.2
		l-0.3-16.5l-0.1-4l-4-0.1l-31-0.4l-0.6-0.5c-0.2-0.2-0.5-0.4-0.7-0.6c0.2-0.1,0.4-0.3,0.6-0.4c7.8-4.7,11.9-12.2,11.2-20.7
		c-0.4-5.7-1.5-8.3-5-12.5c-3.4-4.2-8.1-6.9-13.3-7.8C370.6,180.8,356.4,180.7,348.1,180.7z M349.4,201.2h5.2c7.3,0,8.8,0.1,9.6,0.5
		c1.7,0.7,1.9,1.1,2,2.6c0.1,1.5-0.1,2.1-1.5,3.2c0,0-0.1,0.1-0.1,0.1c-1,0.2-4.6,0.2-9.1,0.2h-6.1L349.4,201.2z"/>
</g>
</svg>
